<?xml version="1.0" encoding="UTF-8"?>
<svg id="Camada_1" data-name="Camada 1" xmlns="http://www.w3.org/2000/svg" viewBox="0 0 995.9 272.19">
  <defs>
    <style>
      .cls-1 {
        fill: #000;
        stroke-width: 0px;
      }

      .cls-2 {
        fill: none;
        stroke: #ccc;
        stroke-miterlimit: 10;
        stroke-width: 12.68px;
      }
    </style>
  </defs>
  <rect class="cls-2" x="6.34" y="6.34" width="983.22" height="259.51" rx="129.75" ry="129.75"/>
  <g>
    <g>
      <path class="cls-1" d="M680.74,209.91c-8.92-4.68-15.84-11.23-20.75-19.62-4.92-8.39-7.37-18.1-7.37-29.14v-50.8c0-11.03,2.45-20.78,7.37-29.25,4.91-8.47,11.83-15,20.75-19.62,8.92-4.61,19.2-6.92,30.84-6.92s21.66,2.27,30.5,6.8c8.84,4.54,15.72,10.7,20.64,18.48,4.91,7.79,7.37,16.44,7.37,25.97v1.59c0,.76-.27,1.4-.79,1.93-.53.53-1.17.79-1.93.79h-26.53c-.76,0-1.4-.26-1.93-.79-.53-.53-.79-1.17-.79-1.93v-.68c0-6.95-2.42-12.81-7.26-17.57-4.84-4.76-11.26-7.14-19.27-7.14s-14.71,2.53-19.62,7.6c-4.92,5.07-7.37,11.68-7.37,19.84v52.61c0,8.16,2.64,14.78,7.94,19.84,5.29,5.07,12.02,7.6,20.18,7.6s14.13-2.08,18.82-6.24c4.68-4.16,7.03-9.94,7.03-17.35v-10.2c0-.75-.38-1.13-1.13-1.13h-25.4c-.76,0-1.4-.26-1.93-.79-.53-.53-.79-1.17-.79-1.93v-20.86c0-.75.26-1.4.79-1.93.53-.53,1.17-.79,1.93-.79h55.33c.75,0,1.4.27,1.93.79.53.53.79,1.17.79,1.93v29.93c0,11.49-2.42,21.47-7.26,29.93-4.84,8.47-11.68,14.93-20.52,19.39-8.84,4.46-19.09,6.69-30.73,6.69s-21.92-2.34-30.84-7.03Z"/>
      <path class="cls-1" d="M896.97,81.78c-4.99-8.61-11.99-15.3-20.98-20.06-8.99-4.76-19.47-7.14-31.4-7.14s-22.19,2.38-31.18,7.14c-9,4.76-15.99,11.45-20.98,20.06-4.99,8.62-7.48,18.53-7.48,29.71v48.52c0,11.34,2.49,21.36,7.48,30.05,4.99,8.69,11.98,15.46,20.98,20.29,8.99,4.85,19.39,7.26,31.18,7.26s22.42-2.38,31.4-7.14c8.99-4.76,15.99-11.52,20.98-20.29,4.99-8.76,7.48-18.82,7.48-30.16v-48.52c0-11.19-2.49-21.09-7.48-29.71ZM806.22,101.98c6.38-16.68,21.39-28.16,38.2-29.26,18.05-1.18,30.49,9.98,33.87,13.43,1.63,1.66,1.61,4.34-.06,5.97s-4.34,1.61-5.97-.06c-2.75-2.8-12.79-11.83-27.29-10.91-13.53.87-25.64,10.24-30.86,23.85-.65,1.68-2.25,2.71-3.94,2.71-.51,0-1.01-.08-1.52-.28-2.17-.83-3.27-3.27-2.42-5.45ZM855.28,125.43c-.42-2.49-2.38-3.94-2.61-4.1-3.23-2.3-7.85-.04-7.89-.03-1.97,1-2.87,2.48-4.27,5-.58,1.03-1.17,2.09-1.9,3.17-4.9,7.14-14.09,11.44-27.3,12.76-2.32.23-4.4-1.47-4.64-3.79-.23-2.32,1.47-4.4,3.79-4.62,10.62-1.07,17.75-4.14,21.18-9.13.52-.76.99-1.61,1.48-2.49,1.55-2.79,3.47-6.26,7.89-8.45.93-.48,9.37-4.44,16.57.69,1.18.85,5.09,4,6.03,9.57.68,3.97-.46,8.14-3.51,12.75-2.49,3.78-8.82,10.96-23.19,16.71-7.66,3.07-15.81,4.97-24.23,5.68-.13.01-.24.01-.35.01-2.18,0-4.03-1.66-4.21-3.87-.2-2.32,1.54-4.37,3.86-4.56,7.58-.63,14.92-2.35,21.8-5.1,12.69-5.09,17.71-11.14,19.27-13.51,1.78-2.71,2.54-4.95,2.24-6.68ZM813.39,175.42c-.11.01-.23.01-.34.01-2.18,0-4.03-1.68-4.21-3.89-.18-2.32,1.55-4.37,3.87-4.55,11.21-.9,21.88-3.61,31.7-8.03,6.65-3,12.93-5.85,18.72-12.26,3.27-3.61,10.06-11.13,9.71-21.49-.24-6.76-3.38-11.6-4.72-13.67-1.39-2.14-5.11-7.86-12.4-10.74-2.28-.9-9.13-3.62-15.92-.68-4.07,1.78-6.61,4.9-7.51,6.17-1.11,1.58-1.51,2.66-1.99,4.04-.48,1.35-1.01,2.87-2.18,4.75-2.99,4.76-8,8.26-14.91,10.41-2.24.7-4.61-.55-5.3-2.78-.69-2.23.55-4.59,2.78-5.3,4.93-1.54,8.38-3.83,10.27-6.83.66-1.07.97-1.94,1.37-3.06.56-1.61,1.27-3.59,3.09-6.14,1.63-2.28,5.23-6.5,11.02-9.02,6.64-2.89,14.16-2.71,22.37.55,9.82,3.89,14.6,11.24,16.4,14,1.58,2.42,5.76,8.88,6.07,17.99.48,13.77-8.17,23.35-11.88,27.43-6.97,7.73-14.37,11.07-21.51,14.3-10.71,4.83-22.32,7.78-34.5,8.75ZM873.58,189.17c-4.62,2.92-9.55,5.38-14.65,7.33-3.03,1.16-6.16,2.14-9.28,2.93-.34.08-.69.13-1.03.13-1.9,0-3.62-1.28-4.1-3.2-.56-2.25.8-4.55,3.07-5.13,2.8-.7,5.61-1.59,8.33-2.62,4.58-1.75,9-3.96,13.17-6.58,1.96-1.25,4.58-.66,5.82,1.31,1.25,1.99.66,4.59-1.32,5.83ZM882.33,163.91c-2.94,3.21-6.19,6.16-9.65,8.76-10.61,7.97-20.77,10.98-28.92,13.38-7.23,2.13-14.74,3.64-22.32,4.47-.15.01-.31.03-.46.03-2.13,0-3.96-1.61-4.2-3.78-.25-2.32,1.42-4.41,3.73-4.66,7.1-.77,14.1-2.17,20.85-4.17,7.9-2.32,16.85-4.97,26.23-12.03,3.06-2.3,5.92-4.89,8.52-7.72,1.58-1.72,4.25-1.83,5.97-.24,1.72,1.58,1.83,4.25.24,5.96Z"/>
    </g>
    <g>
      <path class="cls-1" d="M97.09,213.27V57.93c0-1.52.76-2.28,2.28-2.28h11.65c1.52,0,2.28.76,2.28,2.28v155.35c0,1.52-.76,2.28-2.28,2.28h-11.65c-1.52,0-2.28-.76-2.28-2.28Z"/>
      <path class="cls-1" d="M203.55,108.64c7.46,7.01,11.19,16.3,11.19,27.87v76.76c0,1.52-.76,2.28-2.28,2.28h-11.65c-1.52,0-2.28-.76-2.28-2.28v-9.37c0-.3-.11-.53-.34-.69-.23-.15-.5-.08-.8.23-3.81,4.57-8.76,8.04-14.85,10.39-6.09,2.36-12.87,3.54-20.33,3.54-10.82,0-19.88-2.74-27.19-8.22-7.31-5.48-10.97-13.86-10.97-25.13s4.15-20.45,12.45-27.07c8.3-6.62,19.84-9.94,34.61-9.94h26.5c.61,0,.91-.3.91-.91v-8.68c0-7.77-2.17-13.9-6.51-18.39-4.34-4.49-11.08-6.74-20.22-6.74-7.31,0-13.25,1.41-17.82,4.23-4.57,2.82-7.39,6.74-8.45,11.77-.46,1.52-1.37,2.21-2.74,2.06l-12.34-1.6c-1.68-.3-2.36-.91-2.06-1.83,1.22-8.53,5.79-15.46,13.71-20.79,7.92-5.33,17.82-8,29.7-8,13.71,0,24.29,3.51,31.75,10.51ZM188.7,196.71c6.55-4.49,9.82-10.54,9.82-18.16v-17.82c0-.61-.31-.91-.91-.91h-23.99c-10.05,0-18.13,2.06-24.22,6.17-6.09,4.11-9.14,9.82-9.14,17.13,0,6.7,2.32,11.77,6.97,15.19,4.64,3.43,10.7,5.14,18.16,5.14,8.98,0,16.75-2.25,23.3-6.74Z"/>
      <path class="cls-1" d="M307.84,109.1c7.23,7.16,10.85,16.76,10.85,28.78v75.39c0,1.52-.76,2.28-2.28,2.28h-11.65c-1.52,0-2.28-.76-2.28-2.28v-72.19c0-8.37-2.55-15.23-7.65-20.56-5.1-5.33-11.69-8-19.76-8s-15.16,2.59-20.33,7.77-7.77,11.96-7.77,20.33v72.65c0,1.52-.76,2.28-2.28,2.28h-11.65c-1.52,0-2.28-.76-2.28-2.28v-111.03c0-1.52.76-2.28,2.28-2.28h11.65c1.52,0,2.28.76,2.28,2.28v9.82c0,.31.11.54.34.69.23.15.42.08.57-.23,6.7-9.44,16.98-14.16,30.84-14.16,12.18,0,21.89,3.58,29.13,10.74Z"/>
      <path class="cls-1" d="M349.87,208.82c-7.85-5.71-13.21-13.44-16.11-23.19-1.98-6.7-2.97-16.14-2.97-28.33,0-10.97.99-20.25,2.97-27.87,2.74-9.44,8.07-17.02,15.99-22.73,7.92-5.71,17.36-8.57,28.33-8.57s20.75,2.82,28.9,8.45c8.15,5.64,13.44,12.64,15.88,21.02.76,2.74,1.22,5.03,1.37,6.85v.46c0,1.07-.69,1.75-2.06,2.06l-11.42,1.6h-.46c-1.07,0-1.75-.69-2.06-2.06l-.69-3.43c-1.37-5.79-4.72-10.7-10.05-14.74-5.33-4.03-11.8-6.05-19.42-6.05s-13.97,2.02-19.08,6.05c-5.1,4.04-8.42,9.41-9.94,16.11-1.37,5.79-2.06,13.48-2.06,23.07s.69,17.82,2.06,23.3c1.52,6.85,4.83,12.3,9.94,16.33,5.1,4.04,11.46,6.05,19.08,6.05s13.9-1.94,19.3-5.83c5.4-3.88,8.8-8.87,10.17-14.96v-.91l.23-.91c.15-1.52,1.06-2.13,2.74-1.83l11.19,1.83c1.52.31,2.21,1.14,2.06,2.51l-.91,4.57c-2.28,8.83-7.54,15.99-15.76,21.47-8.22,5.48-17.9,8.22-29.01,8.22s-20.37-2.85-28.21-8.57Z"/>
      <path class="cls-1" d="M512.52,109.1c7.23,7.16,10.85,16.76,10.85,28.78v75.39c0,1.52-.76,2.28-2.28,2.28h-11.65c-1.52,0-2.28-.76-2.28-2.28v-72.19c0-8.37-2.55-15.23-7.65-20.56-5.1-5.33-11.69-8-19.76-8s-15.16,2.59-20.33,7.77-7.77,11.96-7.77,20.33v72.65c0,1.52-.76,2.28-2.28,2.28h-11.65c-1.52,0-2.28-.76-2.28-2.28V57.93c0-1.52.76-2.28,2.28-2.28h11.65c1.52,0,2.28.76,2.28,2.28v54.14c0,.31.11.54.34.69.23.15.42.08.57-.23,6.7-9.44,16.98-14.16,30.84-14.16,12.18,0,21.89,3.58,29.13,10.74Z"/>
      <path class="cls-1" d="M628.69,154.33v7.31c0,1.52-.76,2.28-2.29,2.28h-73.79c-.61,0-.91.31-.91.91.3,8.38.76,13.79,1.37,16.22,1.67,6.85,5.25,12.26,10.74,16.22,5.48,3.96,12.49,5.94,21.02,5.94,6.4,0,12.03-1.45,16.91-4.34,4.87-2.89,8.68-7,11.42-12.34.91-1.37,1.98-1.67,3.2-.91l8.91,5.25c1.22.76,1.52,1.83.91,3.2-3.81,7.31-9.52,13.06-17.13,17.25-7.62,4.19-16.37,6.28-26.27,6.28-10.82-.15-19.88-2.74-27.19-7.77-7.31-5.03-12.56-12.03-15.76-21.02-2.74-7.31-4.11-17.82-4.11-31.53,0-6.4.11-11.61.34-15.65.23-4.03.8-7.65,1.71-10.85,2.59-9.9,7.8-17.82,15.65-23.76,7.84-5.94,17.32-8.91,28.44-8.91,13.86,0,24.52,3.51,31.98,10.51,7.46,7.01,12.11,16.91,13.94,29.7.61,4.27.91,9.6.91,15.99ZM563.24,118.12c-4.95,3.88-8.19,9.1-9.71,15.65-.91,3.2-1.52,8.38-1.83,15.53,0,.61.3.91.91.91h59.17c.61,0,.91-.3.91-.91-.31-6.85-.76-11.73-1.37-14.62-1.68-6.85-5.07-12.3-10.17-16.33-5.1-4.03-11.54-6.05-19.3-6.05s-13.67,1.94-18.62,5.83Z"/>
    </g>
  </g>
</svg>